# xmcd
# 
# Track frame offsets:
#     150
#     22330
#     39462
# 
# Disc length: 826
# 
# Revision: 2
# Processed by: cddbd v1.5.2PL0 Copyright (c) Steve Scherf et al.
# Submitted via: fre:ac v1.0.17
# 
DISCID=21033803
DTITLE=ﾎﾟﾙﾉｸﾞﾗﾌｨﾃｨ - カゲボウシ
DYEAR=2012
DGENRE=JPop
TTITLE0=カゲボウシ
TTITLE1=やがて哀しきロックンロール
TTITLE2=ルーズ
EXTD=
EXTT0=
EXTT1=
EXTT2=
PLAYORDER=
